<?xml version="1.0" encoding="UTF-8" standalone="no"?>
<!DOCTYPE svg PUBLIC "-//W3C//DTD SVG 1.1//EN" "http://www.w3.org/Graphics/SVG/1.1/DTD/svg11.dtd">
<svg version="1.1" xmlns="http://www.w3.org/2000/svg" xmlns:xlink="http://www.w3.org/1999/xlink" preserveAspectRatio="xMidYMid meet" viewBox="0 0 640 640" width="640" height="640"><defs><path d="M89.83 40.62C62.9 56.01 44.07 74.38 33.88 95.2C33.87 95.22 33.81 95.32 33.71 95.5C33.63 95.69 33.58 95.79 33.58 95.81C26.52 112.16 23.09 134.46 23.09 163.92C23.09 193.5 23.09 430.17 23.09 459.75C23.09 491.49 25.21 513.56 29.74 527.52C32.51 535.42 36.28 542.89 40.88 550.03C49.35 541.56 91.68 499.22 167.89 423.01L167.89 376.42L215.41 376.42L328.48 263.37L167.89 263.37C167.89 211.75 167.89 183.08 167.89 177.34C167.89 156.87 173.83 143.31 186.2 135.83C194.47 130.7 213.11 124.6 255.07 124.6C269.16 124.6 339.58 124.6 466.35 124.6L578.64 12.28L578.64 11.9L231.13 11.9L231.14 11.89L231.14 11.89C159.05 18.34 111.95 27.92 89.83 40.62Z" id="b1fyx87XeG"></path><path d="M611.98 258.61L472.15 258.61L472.15 258.67L356.22 258.67L243.15 371.73L468.48 371.73C468.48 421.71 468.48 449.48 468.48 455.03C468.48 478.76 460.08 506.06 394.71 506.06C379.66 506.06 259.22 506.06 244.17 506.06C205.94 506.06 188.03 500.16 179.93 495.35C166.98 487.34 160.3 474.21 159.48 455.41C148.45 466.45 60.18 554.75 49.14 565.79C55.57 572.16 62.78 578.13 71.01 583.59C105.94 607.29 156.95 619.33 222.57 619.33C242.76 619.33 404.28 619.33 424.47 619.33C481.67 619.33 528.1 605.1 562.22 577.22C595.32 551.54 612.09 513.34 612.09 463.8C612.09 450.75 612.09 385.47 612.09 267.98L611.98 268L611.98 268L611.98 258.61Z" id="bS2ZYRh6n"></path></defs><g><g><g><use xlink:href="#b1fyx87XeG" opacity="1" fill="#039add" fill-opacity="1"></use><g><use xlink:href="#b1fyx87XeG" opacity="1" fill-opacity="0" stroke="#000000" stroke-width="1" stroke-opacity="0"></use></g></g><g><use xlink:href="#bS2ZYRh6n" opacity="1" fill="#2b2a29" fill-opacity="1"></use><g><use xlink:href="#bS2ZYRh6n" opacity="1" fill-opacity="0" stroke="#000000" stroke-width="1" stroke-opacity="0"></use></g></g></g></g></svg>