<?xml version="1.0" standalone="no"?>
<!DOCTYPE svg PUBLIC "-//W3C//DTD SVG 20010904//EN"
 "http://www.w3.org/TR/2001/REC-SVG-20010904/DTD/svg10.dtd">
<svg version="1.0" xmlns="http://www.w3.org/2000/svg"
 width="700.000000pt" height="700.000000pt" viewBox="0 0 700.000000 700.000000"
 preserveAspectRatio="xMidYMid meet">
<metadata>
Created by potrace 1.11, written by Peter Selinger 2001-2013
</metadata>
<g transform="translate(0.000000,700.000000) scale(0.100000,-0.100000)"
fill="#000000" stroke="none">
<path d="M2459 6866 c-2 -2 -35 -7 -74 -10 -75 -7 -99 -10 -240 -26 -110 -13
-175 -21 -197 -25 -9 -2 -38 -6 -65 -10 -80 -11 -105 -15 -188 -30 -44 -8 -91
-16 -105 -19 -36 -6 -206 -45 -270 -63 -151 -40 -301 -102 -395 -162 -22 -14
-47 -30 -56 -36 -79 -50 -190 -139 -264 -212 -226 -222 -312 -428 -343 -823
-9 -125 -9 -3671 1 -3820 4 -63 9 -124 11 -136 2 -12 7 -45 11 -75 9 -79 32
-165 62 -239 32 -77 92 -190 101 -190 4 0 318 312 698 692 l691 693 -1 243
c-1 134 2 249 6 255 4 7 89 10 261 10 l255 0 618 618 618 618 -873 0 c-479 0
-875 2 -879 5 -9 6 -7 986 2 1059 21 164 102 288 227 349 61 30 176 63 254 73
28 3 64 8 81 11 17 3 48 7 70 10 21 3 621 7 1333 9 l1293 2 617 617 616 616
-1936 0 c-1065 0 -1938 -2 -1940 -4z"/>
<path d="M3277 3552 l-618 -618 1226 1 c807 0 1229 -3 1234 -10 13 -17 6 -972
-7 -1040 -25 -127 -103 -239 -209 -302 -92 -53 -247 -96 -403 -110 -94 -9
-1926 -8 -2050 0 -314 22 -476 76 -581 195 -66 76 -106 169 -116 277 -3 33 -7
62 -10 65 -2 2 -274 -266 -604 -597 l-601 -600 52 -49 c230 -215 616 -393 993
-459 18 -4 50 -10 72 -15 35 -8 67 -13 160 -25 274 -36 394 -39 1680 -39 1102
0 1375 4 1500 19 95 12 196 26 217 31 13 2 37 7 53 10 125 22 311 81 454 143
275 118 557 335 703 541 60 85 119 195 158 295 32 84 95 324 86 332 -3 3 -1
15 4 27 19 52 24 285 24 1384 l1 1162 -1400 0 -1400 0 -618 -618z"/>
</g>
</svg>
